<svg width="50" height="50" viewBox="0 0 50 50" fill="none" xmlns="http://www.w3.org/2000/svg">
<g clip-path="url(#clip0_4449_47)">
<path d="M49.0562 22.7703L27.2219 0.943768C26.9229 0.644008 26.5677 0.40618 26.1766 0.243908C25.7856 0.0816362 25.3664 -0.00189209 24.943 -0.00189209C24.5196 -0.00189209 24.1004 0.0816362 23.7093 0.243908C23.3183 0.40618 22.9631 0.644008 22.6641 0.943768L18.1391 5.47658L23.8922 11.2219C24.568 10.9926 25.2945 10.9573 25.9894 11.12C26.6842 11.2827 27.3196 11.6368 27.8234 12.1422C28.8984 13.2172 29.1984 14.7625 28.7437 16.0969L34.2781 21.6391C34.9562 21.403 35.6871 21.3632 36.3868 21.5244C37.0865 21.6855 37.7264 22.0411 38.2328 22.55C39.7391 24.0469 39.7391 26.4719 38.2328 27.9703C37.8777 28.3262 37.4558 28.6085 36.9915 28.8011C36.5271 28.9937 36.0293 29.0929 35.5266 29.0929C35.0238 29.0929 34.526 28.9937 34.0616 28.8011C33.5973 28.6085 33.1754 28.3262 32.8203 27.9703C32.287 27.4367 31.9224 26.758 31.7718 26.0187C31.6212 25.2795 31.6913 24.5122 31.9734 23.8125L26.7891 18.6531V32.2516C27.1547 32.4313 27.5047 32.675 27.8062 32.9766C29.2953 34.4828 29.2953 36.8985 27.8062 38.3969C27.0844 39.1158 26.1071 39.5195 25.0883 39.5195C24.0695 39.5195 23.0922 39.1158 22.3703 38.3969C21.9236 37.9501 21.5943 37.3997 21.4117 36.7949C21.2291 36.19 21.1989 35.5494 21.3237 34.9301C21.4485 34.3107 21.7245 33.7318 22.1271 33.2448C22.5296 32.7579 23.0464 32.3781 23.6312 32.1391V18.411C23.1647 18.2128 22.7396 17.9287 22.3781 17.5735C21.8404 17.0372 21.475 16.3527 21.3286 15.6075C21.1822 14.8624 21.2615 14.0905 21.5562 13.3906L15.9078 7.71096L0.934375 22.6766C0.335789 23.2841 0.000244141 24.1027 0.000244141 24.9555C0.000244141 25.8083 0.335789 26.6269 0.934375 27.2344L22.7687 49.061C23.0677 49.3607 23.4229 49.5985 23.814 49.7608C24.205 49.9231 24.6243 50.0066 25.0477 50.0066C25.471 50.0066 25.8903 49.9231 26.2813 49.7608C26.6724 49.5985 27.0276 49.3607 27.3266 49.061L49.0547 27.3328C49.3544 27.0338 49.5923 26.6786 49.7545 26.2876C49.9168 25.8965 50.0003 25.4773 50.0003 25.0539C50.0003 24.6305 49.9168 24.2113 49.7545 23.8203C49.5923 23.4292 49.3544 23.074 49.0547 22.775L49.0562 22.7703Z" fill="#B6B3B3"/>
</g>
<defs>
<clipPath id="clip0_4449_47">
<rect width="50" height="50" fill="white"/>
</clipPath>
</defs>
</svg>
