<svg width="50" height="50" viewBox="0 0 50 50" fill="none" xmlns="http://www.w3.org/2000/svg">
<g clip-path="url(#clip0_4449_35)">
<path d="M26.2124 7.26872C29.4603 4.78331 33.2874 3.32289 36.4583 5.15414C39.6291 6.98331 40.2791 11.0291 39.7499 15.0833C39.6874 15.5854 39.602 16.1021 39.4978 16.6291C40.0062 16.8041 40.4978 16.9896 40.9624 17.1833C44.7374 18.7541 47.9166 21.3396 47.9166 25C47.9166 28.6604 44.7374 31.2458 40.9624 32.8166C40.4958 33.0104 40.0062 33.1958 39.4978 33.3708C39.602 33.8979 39.6853 34.4125 39.7499 34.9166C40.2791 38.9708 39.6291 43.0166 36.4583 44.8458C33.2895 46.6771 29.4583 45.2166 26.2124 42.7333C25.7978 42.415 25.3934 42.0836 24.9999 41.7396C24.5937 42.0937 24.1895 42.425 23.7874 42.7333C20.5416 45.2166 16.7124 46.6771 13.5416 44.8458C10.3728 43.0166 9.72284 38.9708 10.2499 34.9166C10.3182 34.3988 10.403 33.8833 10.5041 33.3708C9.99367 33.1958 9.50408 33.0104 9.03742 32.8166C5.26242 31.2458 2.08325 28.6604 2.08325 25C2.08325 21.3396 5.26242 18.7541 9.03742 17.1833C9.50408 16.9896 9.99575 16.8041 10.5041 16.6291C10.3999 16.1021 10.3166 15.5875 10.2499 15.0833C9.72284 11.0291 10.3728 6.98331 13.5416 5.15414C16.7124 3.32289 20.5416 4.78331 23.7874 7.26872C24.1895 7.57497 24.5937 7.90622 24.9999 8.26039C25.4062 7.90622 25.8124 7.57497 26.2124 7.26872ZM14.5416 34.4521C14.4791 34.7958 14.427 35.1312 14.3833 35.4541C13.8978 39.1896 14.8124 40.7666 15.627 41.2375C16.4437 41.7083 18.2666 41.7125 21.2583 39.425C21.5269 39.2186 21.7902 39.0053 22.0478 38.7854C21.0202 37.6204 20.053 36.4035 19.1499 35.1396C17.6031 34.9893 16.0649 34.7598 14.5416 34.4521ZM35.4645 34.4521C34.027 34.7437 32.4895 34.9771 30.8562 35.1396C29.8978 36.4729 28.9291 37.6896 27.9583 38.7854C28.2228 39.0125 28.4874 39.2229 28.7458 39.4229C31.7374 41.7125 33.5624 41.7083 34.377 41.2375C35.1937 40.7666 36.1062 39.1896 35.6207 35.4541C35.5772 35.1188 35.5251 34.7847 35.4645 34.4521ZM24.9999 18.75C23.7666 18.75 22.5833 18.7875 21.4541 18.8562C20.8291 19.8 20.2041 20.8083 19.5874 21.8771C18.9952 22.9013 18.4345 23.9434 17.9062 25.0021C18.4103 26.0146 18.9708 27.0562 19.5874 28.125C20.2041 29.1937 20.827 30.2 21.4541 31.1458C23.8166 31.285 26.1853 31.285 28.5478 31.1458C29.1728 30.2 29.7978 29.1937 30.4124 28.125C31.0053 27.1008 31.5667 26.0586 32.0958 25C31.5667 23.9414 31.0053 22.8992 30.4124 21.875C29.8219 20.8499 29.2001 19.8432 28.5478 18.8562C27.3665 18.7849 26.1834 18.7495 24.9999 18.75ZM11.5833 20.6666C11.265 20.7803 10.9496 20.9019 10.6374 21.0312C7.15825 22.4771 6.24992 24.0583 6.24992 25C6.24992 25.9416 7.16033 27.5229 10.6374 28.9687C10.9395 29.0937 11.2562 29.2166 11.5833 29.3333C12.079 27.8606 12.6498 26.4142 13.2937 25C12.6506 23.5857 12.0783 22.1393 11.5833 20.6666ZM38.4166 20.6666C37.9215 22.1393 37.3514 23.5857 36.7083 25C37.3833 26.4937 37.9541 27.9437 38.4166 29.3333C38.7349 29.2198 39.0503 29.0982 39.3624 28.9687C42.8416 27.5229 43.7499 25.9416 43.7499 25C43.7499 24.0583 42.8416 22.4791 39.3624 21.0312C39.0503 20.9017 38.7349 20.7801 38.4166 20.6666ZM24.9999 21.875C25.8287 21.875 26.6236 22.2042 27.2096 22.7903C27.7957 23.3763 28.1249 24.1712 28.1249 25C28.1249 25.8288 27.7957 26.6236 27.2096 27.2097C26.6236 27.7957 25.8287 28.125 24.9999 28.125C24.1711 28.125 23.3763 27.7957 22.7902 27.2097C22.2042 26.6236 21.8749 25.8288 21.8749 25C21.8749 24.1712 22.2042 23.3763 22.7902 22.7903C23.3763 22.2042 24.1711 21.875 24.9999 21.875ZM15.6249 8.76247C14.8103 9.23331 13.8958 10.8104 14.3812 14.5458C14.4228 14.8708 14.477 15.2041 14.5395 15.5479C15.9749 15.2562 17.5145 15.0229 19.1478 14.8604C20.0507 13.5962 21.0179 12.3794 22.0458 11.2146C21.788 10.9954 21.5247 10.7829 21.2562 10.5771C18.2645 8.28747 16.4416 8.29164 15.6249 8.76247ZM34.3749 8.76247C33.5603 8.29164 31.7353 8.28956 28.7437 10.5771C28.4758 10.7828 28.2132 10.9954 27.9562 11.2146C28.927 12.3104 29.8978 13.5291 30.852 14.8604C32.4853 15.0229 34.027 15.2562 35.4624 15.5479C35.5229 15.2159 35.575 14.8825 35.6187 14.5479C36.1062 10.8125 35.1916 9.23331 34.3749 8.76247Z" fill="#B6B3B3"/>
</g>
<defs>
<clipPath id="clip0_4449_35">
<rect width="50" height="50" fill="white"/>
</clipPath>
</defs>
</svg>
