<svg width="50" height="50" viewBox="0 0 50 50" fill="none" xmlns="http://www.w3.org/2000/svg">
<path d="M25 0C29.9445 0 34.778 1.46622 38.8892 4.21326C43.0005 6.96029 46.2048 10.8648 48.097 15.4329C49.9892 20.0011 50.4843 25.0277 49.5196 29.8773C48.555 34.7268 46.174 39.1813 42.6777 42.6777C39.1813 46.174 34.7268 48.555 29.8773 49.5196C25.0277 50.4843 20.0011 49.9892 15.4329 48.097C10.8648 46.2048 6.96029 43.0005 4.21326 38.8892C1.46622 34.778 0 29.9445 0 25C0 18.3696 2.63392 12.0107 7.32233 7.32233C12.0107 2.63392 18.3696 0 25 0ZM35.9304 9.25C34.6822 9.34255 33.4673 9.69543 32.3638 10.2859C31.2603 10.8764 30.2927 11.6915 29.5232 12.6786C27.7686 14.8098 26.4387 17.2575 25.6054 19.8893C24.1532 18.2692 22.3417 17.0118 20.3161 16.2179C19.3251 15.9136 18.2755 15.8521 17.2559 16.0386C16.2362 16.2251 15.2763 16.654 14.4571 17.2893C13.6077 17.9553 12.9841 18.8669 12.6714 19.9C12.4513 20.8562 12.4727 21.8521 12.7336 22.7979C12.9945 23.7438 13.4868 24.6098 14.1661 25.3179L15.7018 26.9643C16.0308 27.2531 16.2722 27.6285 16.3985 28.0477C16.5248 28.4669 16.5309 28.9132 16.4161 29.3357C16.1512 30.0295 15.6251 30.5919 14.9504 30.9024C14.2758 31.2128 13.5064 31.2466 12.8071 30.9964C12.0821 30.775 11.0411 30.2357 11.275 29.475C11.4032 29.195 11.5493 28.9236 11.7125 28.6625C11.7901 28.4992 11.8551 28.3303 11.9071 28.1571C12.0774 27.6665 12.0537 27.1294 11.8409 26.6557C11.6281 26.182 11.2423 25.8075 10.7625 25.6089C10.5326 25.5063 10.2828 25.4559 10.031 25.4614C9.77929 25.4668 9.53191 25.528 9.30666 25.6406C9.08142 25.7531 8.88392 25.9142 8.72838 26.1122C8.57284 26.3102 8.46313 26.5402 8.40714 26.7857C7.97143 28.2 8.64821 30.7696 12.2768 31.8875C16.5268 33.1929 20.1214 30.8786 20.6321 27.8607C20.9536 25.9696 20.0964 24.5661 18.5357 22.7589L17.2625 21.35C16.848 20.9544 16.5944 20.4195 16.5505 19.8482C16.5067 19.2769 16.6757 18.7096 17.025 18.2554C17.4008 17.7905 17.9188 17.4618 18.4993 17.3196C19.0799 17.1773 19.6911 17.2294 20.2393 17.4679C22.5339 18.0911 23.5571 19.6839 25.2643 20.9679C24.5589 23.2804 24.0982 25.6 23.6821 27.6804L23.4286 29.2321C22.2089 35.6321 21.2857 39.1464 18.8571 41.1625C18.2248 41.69 17.4428 42.0054 16.6214 42.0643C16.5379 42.0775 16.4526 42.0741 16.3705 42.0543C16.2883 42.0346 16.2108 41.9988 16.1425 41.949C16.0741 41.8993 16.0163 41.8365 15.9722 41.7644C15.9282 41.6922 15.8988 41.6121 15.8857 41.5286C15.8732 41.1411 16.1982 40.9643 16.4214 40.7911C16.6864 40.6727 16.9057 40.4715 17.0465 40.2177C17.1872 39.964 17.2417 39.6713 17.2018 39.3839C17.1892 39.1 17.1197 38.8214 16.9975 38.5648C16.8754 38.3082 16.703 38.0786 16.4905 37.8898C16.278 37.701 16.0299 37.5567 15.7607 37.4656C15.4914 37.3744 15.2067 37.3381 14.9232 37.3589C14.2497 37.4077 13.6204 37.7123 13.1645 38.2105C12.7085 38.7086 12.4605 39.3623 12.4714 40.0375C12.5304 41.8053 14.1786 43.1303 16.6625 43.0464C18.085 42.9219 19.4645 42.4952 20.7088 41.795C21.9532 41.0947 23.0339 40.137 23.8786 38.9857C26.56 35.5318 28.3 31.4415 28.9286 27.1143L29.7268 22.7036C30.1684 22.7583 30.6446 22.7923 31.1554 22.8054C35.3929 22.8946 37.5107 20.7 37.5428 19.1036C37.5882 18.6468 37.4505 18.1908 37.1599 17.8356C36.8692 17.4803 36.4495 17.2549 35.9928 17.2089C35.6017 17.2183 35.2248 17.3571 34.921 17.6037C34.6173 17.8502 34.4039 18.1906 34.3143 18.5714C34.1214 19.4643 35.6625 20.2661 34.4571 21.0464C33.0608 21.7842 31.4491 22.0061 29.9054 21.6732L30.2982 19.5018C31.1 15.3839 32.0839 10.3179 35.8339 10.1946C36.1071 10.1804 37.1071 10.2071 37.1303 10.8679C37.1303 11.0893 37.0821 11.1446 36.8232 11.6518C36.582 11.973 36.4562 12.3662 36.4661 12.7679C36.4719 13.015 36.5297 13.2582 36.6359 13.4814C36.7421 13.7047 36.8943 13.903 37.0824 14.0635C37.2704 14.2239 37.4903 14.3429 37.7275 14.4126C37.9647 14.4822 38.2139 14.5011 38.4589 14.4679C38.7411 14.4438 39.0157 14.3644 39.2671 14.2341C39.5186 14.1039 39.7419 13.9254 39.9243 13.7088C40.1067 13.4922 40.2447 13.2418 40.3303 12.9719C40.4159 12.702 40.4475 12.4178 40.4232 12.1357C40.3607 10.3179 38.4428 9.16786 35.9054 9.25178L35.9304 9.25Z" fill="#B6B3B3"/>
</svg>
