<svg width="50" height="50" viewBox="0 0 50 50" fill="none" xmlns="http://www.w3.org/2000/svg">
<g clip-path="url(#clip0_4452_28)">
<path d="M25.0992 -2.35961e-05C15.305 -0.0170736 6.08643 5.79058 1.85573 14.9834L13.7517 15.0117V16.3127C10.0886 15.8719 10.4112 17.7741 10.9297 19.7931L18.7389 39.3645L24.4786 25.9099L21.8437 19.6045C20.8866 17.9157 20.8664 16.042 16.9508 16.2185L17.0058 15.0196L34.4529 15.062V16.4055C32.4097 16.5253 29.9501 15.8918 31.2539 20.0759L38.3104 38.6119L42.1678 27.7907C43.431 23.2545 42.2422 18.8952 40.7411 14.6205C39.9063 11.7527 40.2956 9.35778 44.0376 8.40773C38.3259 2.57748 31.5864 0.0112764 25.0994 -2.35961e-05H25.0992ZM48.8282 17.1125L37.5167 46.5969C40.6405 43.8914 43.8435 42.9066 47.7628 35.4206C50.3706 29.194 50.1021 23.4258 48.8282 17.1124V17.1125ZM0.658427 17.5901C-0.445623 26.2944 -0.344624 28.8438 2.38838 35.9518C5.95088 42.7595 8.71348 44.1938 12.6345 46.8641L0.658427 17.5901ZM25.5407 28.6344L17.1581 48.8595C23.0422 50.539 28.307 50.3288 33.1267 48.4604L25.5407 28.6344Z" fill="#B6B3B3"/>
</g>
<defs>
<clipPath id="clip0_4452_28">
<rect width="49.7664" height="50" fill="white"/>
</clipPath>
</defs>
</svg>
